# Blender v2.80 (sub 75) OBJ File: ''
# www.blender.org
mtllib WeirdCube.mtl
o Cube_Cube.010
v -0.456642 0.745705 -0.765617
v 0.456642 0.745705 -0.765617
v -0.456642 0.025437 -0.765617
v 0.456642 0.025437 -0.765617
v -0.456642 0.745705 -0.028847
v 0.456642 0.745705 -0.028847
v -0.456642 0.025437 -0.028491
v 0.456642 0.025437 -0.351851
v 0.456642 0.308632 -0.028847
v -0.456642 0.745705 0.765617
v 0.456642 0.745705 0.765617
v -0.440059 0.726392 0.000000
v 0.440059 0.726392 0.000000
v -0.456642 0.025437 0.765617
v 0.456642 0.025437 0.765617
v -0.440059 0.025437 0.000000
v -0.456642 0.745705 0.028847
v 0.456642 0.745705 0.028847
v -0.456642 0.025437 0.028491
v 0.440059 0.333924 0.000000
v 0.456642 0.025437 0.351851
v 0.456642 0.308632 0.028847
v 0.402467 0.276926 0.000000
v 0.453129 0.144349 0.000000
v 0.402467 0.190526 0.000000
v -0.456642 -0.750227 -0.765617
v 0.456642 -0.750227 -0.765617
v -0.440059 0.000000 -0.740758
v 0.440059 0.000000 -0.740758
v -0.456642 -0.025437 -0.765617
v 0.456642 -0.025437 -0.765617
v 0.440059 0.000000 -0.386021
v 0.456642 -0.025437 -0.351851
v 0.453129 0.000000 -0.174504
v 0.402467 0.000000 -0.322426
v 0.402467 0.000000 -0.226026
v -0.456642 -0.750227 0.765617
v 0.456642 -0.750227 0.765617
v -0.440059 0.000000 0.740758
v 0.440059 0.000000 0.740758
v -0.440059 0.000000 0.000000
v -0.456642 -0.025437 0.765617
v 0.456642 -0.025437 0.765617
v 0.456642 -0.333924 0.000000
v 0.440059 0.000000 0.386021
v 0.456642 -0.025437 0.351851
v 0.453129 0.000000 0.174504
v 0.402467 -0.276926 0.000000
v 0.453129 -0.144349 0.000000
v 0.402467 0.000000 0.322426
v 0.402467 -0.190526 0.000000
v 0.402467 0.000000 0.226026
v 0.453129 0.000000 0.000000
vt 0.625000 0.500000
vt 0.562500 0.250000
vt 0.625000 0.250000
vt 0.625000 0.125000
vt 0.562500 0.187500
vt 0.562500 0.125000
vt 0.875000 0.562500
vt 0.875000 0.500000
vt 0.587074 0.562500
vt 0.590006 0.625000
vt 0.590006 0.625000
vt 0.562500 0.500000
vt 0.500000 0.250000
vt 0.562500 0.250000
vt 0.562500 0.250000
vt 0.500000 0.125000
vt 0.562500 0.535100
vt 0.625000 0.187500
vt 0.500000 0.250000
vt 0.500000 0.531102
vt 0.500000 0.531102
vt 0.625000 0.562500
vt 0.875000 0.625000
vt 0.625000 0.625000
vt 0.500000 0.531102
vt 0.590006 0.625000
vt 0.500000 0.531102
vt 0.590006 0.625000
vt 0.504702 0.625000
vt 0.562500 0.250000
vt 0.625000 0.500000
vt 0.625000 0.250000
vt 0.562500 0.187500
vt 0.625000 0.187500
vt 0.875000 0.562500
vt 0.875000 0.500000
vt 0.587074 0.562500
vt 0.562500 0.500000
vt 0.562500 0.535100
vt 0.500000 0.531102
vt 0.500000 0.531102
vt 0.625000 0.562500
vt 0.500000 0.500000
vt 0.500000 0.531102
vt 0.500000 0.531102
vt 0.625000 0.500000
vt 0.625000 0.250000
vt 0.562500 0.500000
vt 0.562500 0.535100
vt 0.590006 0.625000
vt 0.500000 0.500000
vt 0.590006 0.625000
vt 0.590006 0.625000
vt 0.590006 0.625000
vt 0.625000 0.500000
vt 0.625000 0.250000
vt 0.562500 0.500000
vt 0.562500 0.535100
vn 0.0000 0.0000 -1.0000
vn -0.8643 0.0000 0.5030
vn 0.0000 1.0000 0.0000
vn 0.6014 -0.3967 0.6935
vn 0.0000 -0.6989 -0.7152
vn -0.8377 0.5461 0.0000
vn 1.0000 -0.0000 0.0000
vn -1.0000 0.0000 0.0000
vn 0.5392 -0.7796 0.3187
vn 0.0000 0.8310 0.5563
vn 0.8377 -0.5461 0.0000
vn 0.5747 0.6306 -0.5216
vn 0.5795 -0.6128 0.5373
vn 0.8670 -0.0000 0.4984
vn 0.0000 0.0000 1.0000
vn -0.8669 0.0002 -0.4985
vn 0.6014 -0.3967 -0.6935
vn 0.0000 -0.6989 0.7152
vn -0.8377 -0.5461 -0.0000
vn 0.5392 -0.7796 -0.3187
vn 0.0000 0.8310 -0.5563
vn 0.5747 0.6306 0.5216
vn 0.6203 -0.5950 -0.5110
vn 0.8670 -0.0000 -0.4984
vn -0.8643 -0.0000 -0.5030
vn 0.0000 0.6989 -0.7152
vn 0.5392 0.7796 0.3187
vn 0.8377 0.5461 0.0000
vn 0.5747 -0.6306 -0.5216
vn 0.6204 0.5897 0.5170
vn 0.0000 0.6989 0.7152
vn 0.5392 0.7796 -0.3187
vn 0.5747 -0.6306 0.5216
vn 0.6204 0.5897 -0.5170
vn 0.0000 -1.0000 0.0000
vn -0.8669 0.0002 0.4985
vn 0.5482 0.6395 -0.5390
vn 0.6203 -0.5950 0.5110
vn 0.5482 0.6395 0.5390
vn 0.5795 -0.6128 -0.5373
vn 0.5482 -0.6395 -0.5390
vn 0.5790 0.6185 0.5312
vn 0.5482 -0.6395 0.5390
vn 0.5790 0.6185 -0.5312
usemtl None
s off
f 2/1/1 3/2/1 1/3/1
f 12/4/2 7/5/2 16/6/2
f 5/7/3 2/1/3 1/8/3
f 9/9/4 20/10/4 23/11/4
f 4/12/5 28/13/5 3/2/5
f 30/14/6 42/15/6 41/16/6
f 2/1/7 9/9/7 8/17/7
f 5/18/8 3/2/8 7/5/8
f 42/15/6 39/19/6 41/16/6
f 8/17/9 35/20/9 32/21/9
f 6/22/10 12/23/10 13/24/10
f 32/21/11 4/12/11 8/17/11
f 8/17/7 4/12/7 2/1/7
f 2/1/7 6/22/7 9/9/7
f 36/25/7 23/11/7 25/26/7
f 34/27/12 25/26/12 24/28/12
f 24/28/7 53/29/7 34/27/7
f 9/9/13 35/20/13 8/17/13
f 6/22/14 20/10/14 9/9/14
f 41/16/2 16/6/2 7/5/2
f 14/30/15 11/31/15 10/32/15
f 12/4/16 19/33/16 17/34/16
f 11/31/3 17/35/3 10/36/3
f 22/37/17 23/11/17 20/10/17
f 39/19/18 15/38/18 14/30/18
f 19/33/19 39/19/19 14/30/19
f 11/31/7 21/39/7 22/37/7
f 17/34/8 14/30/8 10/32/8
f 28/13/19 7/5/19 3/2/19
f 21/39/20 45/40/20 50/41/20
f 12/23/21 18/42/21 13/24/21
f 45/40/11 15/38/11 40/43/11
f 21/39/7 11/31/7 15/38/7
f 11/31/7 22/37/7 18/42/7
f 52/44/7 23/11/7 50/41/7
f 25/26/22 47/45/22 24/28/22
f 24/28/7 47/45/7 53/29/7
f 22/37/23 50/41/23 23/11/23
f 18/42/24 20/10/24 13/24/24
f 41/16/25 19/33/25 16/6/25
f 30/14/1 27/46/1 26/47/1
f 28/13/26 31/48/26 30/14/26
f 27/46/7 33/49/7 44/50/7
f 33/49/27 32/21/27 35/20/27
f 32/21/28 31/48/28 29/51/28
f 33/49/7 27/46/7 31/48/7
f 36/25/7 48/52/7 35/20/7
f 51/53/29 34/27/29 49/54/29
f 49/54/7 34/27/7 53/29/7
f 33/49/30 48/52/30 44/50/30
f 38/55/15 42/15/15 37/56/15
f 43/57/31 39/19/31 42/15/31
f 38/55/7 44/50/7 46/58/7
f 46/58/32 50/41/32 45/40/32
f 45/40/28 43/57/28 46/58/28
f 46/58/7 43/57/7 38/55/7
f 52/44/7 48/52/7 51/53/7
f 47/45/33 51/53/33 49/54/33
f 49/54/7 53/29/7 47/45/7
f 48/52/34 46/58/34 44/50/34
f 41/16/6 28/13/6 30/14/6
f 30/14/8 37/56/8 42/15/8
f 38/55/35 26/47/35 27/46/35
f 38/55/7 27/46/7 44/50/7
f 2/1/1 4/12/1 3/2/1
f 12/4/36 5/18/36 7/5/36
f 5/7/3 6/22/3 2/1/3
f 4/12/5 29/51/5 28/13/5
f 5/18/8 1/3/8 3/2/8
f 6/22/10 5/7/10 12/23/10
f 32/21/11 29/51/11 4/12/11
f 36/25/7 35/20/7 23/11/7
f 34/27/37 36/25/37 25/26/37
f 9/9/38 23/11/38 35/20/38
f 6/22/14 13/24/14 20/10/14
f 14/30/15 15/38/15 11/31/15
f 12/4/25 16/6/25 19/33/25
f 11/31/3 18/42/3 17/35/3
f 39/19/18 40/43/18 15/38/18
f 19/33/19 41/16/19 39/19/19
f 17/34/8 19/33/8 14/30/8
f 28/13/19 41/16/19 7/5/19
f 12/23/21 17/35/21 18/42/21
f 45/40/11 21/39/11 15/38/11
f 52/44/7 25/26/7 23/11/7
f 25/26/39 52/44/39 47/45/39
f 22/37/40 21/39/40 50/41/40
f 18/42/24 22/37/24 20/10/24
f 30/14/1 31/48/1 27/46/1
f 28/13/26 29/51/26 31/48/26
f 32/21/28 33/49/28 31/48/28
f 36/25/7 51/53/7 48/52/7
f 51/53/41 36/25/41 34/27/41
f 33/49/42 35/20/42 48/52/42
f 38/55/15 43/57/15 42/15/15
f 43/57/31 40/43/31 39/19/31
f 45/40/28 40/43/28 43/57/28
f 52/44/7 50/41/7 48/52/7
f 47/45/43 52/44/43 51/53/43
f 48/52/44 50/41/44 46/58/44
f 30/14/8 26/47/8 37/56/8
f 38/55/35 37/56/35 26/47/35
